# xmcd
#
# Track frame offsets: 
#        150
#        22452
#        45382
#        68772
#        89527
#        112177
#        131680
#        152980
#
# Disc length: 2384 seconds
#
# Revision: 12
# Processed by: cddbd v1.5.2PL0 Copyright (c) Steve Scherf et al.
# Submitted via: ExactAudioCopy v1.0b2
#
DISCID=72094e08
DTITLE=RUSH - GRACE UNDER PRESSURE (REMASTERED)
DYEAR=1984
DGENRE=Progressive Rock
TTITLE0=Distant Early Warning
TTITLE1=Afterimage
TTITLE2=Red Sector A
TTITLE3=The Enemy Within
TTITLE4=The Body Electric
TTITLE5=Kid Gloves
TTITLE6=Red Lenses
TTITLE7=Between The Wheels
EXTD=The Rush Remasters 1997
EXTT0=
EXTT1=
EXTT2=
EXTT3=
EXTT4=
EXTT5=
EXTT6=
EXTT7=
PLAYORDER=
